<svg width="25" height="24" viewBox="0 0 25 24" fill="none" xmlns="http://www.w3.org/2000/svg">
<g id="image 97 (traced)" clip-path="url(#clip0_678_56)">
<g id="Black">
<path id="Vector" d="M9.42907 0.0421886C9.1947 0.117189 8.90407 0.290627 8.73532 0.459375C8.50095 0.698439 7.64782 1.92656 7.46032 2.29219C7.14626 2.92031 7.03845 3.88125 7.20251 4.58438C7.24001 4.74375 7.5072 5.40469 7.79313 6.05156C8.07907 6.69844 8.30407 7.23281 8.2947 7.2375C8.28532 7.24219 7.91032 7.36875 7.46032 7.51406C5.75876 8.07188 4.78845 8.60156 4.78845 8.97188C4.78845 9.03281 4.83064 9.13594 4.88689 9.20625C5.02282 9.37969 5.27126 9.375 5.5197 9.19219C5.91345 8.90156 6.83688 8.49844 7.90095 8.16094C8.23376 8.05781 8.53376 7.96875 8.57126 7.96875C8.62751 7.96875 8.86657 8.41875 8.86657 8.52188C8.86657 8.54063 8.68376 8.60625 8.45407 8.66719C7.88688 8.81719 6.8697 9.20156 6.33532 9.45938C5.95563 9.64219 5.82439 9.73594 5.46813 10.0969C5.12126 10.4438 5.00407 10.5984 4.84939 10.9219C4.52126 11.5969 4.40407 12.2813 4.50251 12.9375C4.56345 13.3453 7.19314 21.7969 7.3197 22.0078C7.45095 22.2188 7.64782 22.3875 7.8822 22.4953C8.08845 22.5891 8.16813 22.5938 12.2134 22.5938C15.2603 22.5938 16.3806 22.5797 16.5166 22.5375C16.7556 22.4672 17.1213 22.1391 17.2244 21.9047C17.3041 21.7313 19.7041 14.0766 19.8869 13.4297C20.1306 12.5484 20.0041 11.5641 19.5447 10.7906C19.3384 10.4438 18.8603 9.9375 18.5322 9.71719C18.0963 9.43125 16.9291 8.9625 15.9119 8.67188L15.5744 8.57344L15.715 8.28281C15.8134 8.06719 15.8744 7.99688 15.9353 8.00625C16.4369 8.10469 18.2181 8.78438 18.6681 9.04688C19.6291 9.61406 20.2619 10.4719 20.5666 11.625C20.6791 12.0469 20.6791 12.9891 20.5666 13.4063C20.5197 13.575 20.0838 14.9906 19.5963 16.5516C19.1088 18.1172 18.7103 19.4719 18.7103 19.5609C18.7103 19.7484 18.8791 19.9219 19.0666 19.9219C19.3431 19.9219 19.3572 19.8844 20.3463 16.7109C20.8572 15.0609 21.3072 13.5844 21.34 13.4297C21.3775 13.2609 21.4009 12.8719 21.3963 12.4688C21.3963 11.8922 21.3728 11.7188 21.2697 11.3203C20.9463 10.0828 20.14 9.02344 19.0384 8.38594C18.5978 8.12813 17.4541 7.66875 16.7181 7.44844C16.4369 7.36406 16.1931 7.28906 16.1838 7.27969C16.1744 7.27031 16.3291 6.9 16.5259 6.45L16.8916 5.62969L17.9322 5.61563C18.9541 5.60156 18.9775 5.60156 19.1463 5.48438C19.24 5.42344 19.3619 5.28281 19.4228 5.17969C19.5259 5.00156 19.5306 4.93594 19.5447 3.95625C19.5634 2.79844 19.5353 2.62031 19.3056 2.35781C19.0619 2.08125 18.9681 2.0625 17.8713 2.0625C17.0697 2.0625 16.8869 2.04844 16.8681 1.99688C16.8541 1.95938 16.6056 1.59844 16.3197 1.19531C15.7806 0.440626 15.5838 0.248438 15.1806 0.0843773C15.0025 0.0140648 14.7119 0.00468826 12.265 0.00468826C10.7697 0.00937653 9.4947 0.0234394 9.42907 0.0421886ZM15.0072 0.843752C15.1713 0.937502 15.3213 1.10625 15.715 1.66406C16.3103 2.49375 16.4744 2.80781 16.5775 3.30938C16.6619 3.70781 16.6478 4.06406 16.5306 4.47656C16.4275 4.84219 14.9228 8.20781 14.8056 8.33438C14.5853 8.57344 14.5572 8.57813 12.2416 8.57813C9.88845 8.57813 9.86032 8.57344 9.66813 8.31094C9.53688 8.1375 8.09782 4.89375 7.97595 4.50469C7.80251 3.96094 7.86813 3.15938 8.12126 2.65781C8.17751 2.55 8.45407 2.12813 8.74001 1.72031C9.27438 0.960939 9.42438 0.810938 9.75251 0.745314C9.84626 0.726564 11.0181 0.717188 12.3588 0.717188L14.7963 0.726564L15.0072 0.843752ZM18.7478 2.86875C18.8275 2.94844 18.8275 4.73906 18.7478 4.81875C18.7103 4.85625 18.4666 4.875 17.9509 4.875C17.5431 4.875 17.2103 4.86563 17.2103 4.85625C17.2103 4.84219 17.2291 4.78125 17.2572 4.71094C17.2806 4.64531 17.3275 4.40625 17.3509 4.17656C17.4025 3.78281 17.3697 3.30938 17.2759 2.925L17.2478 2.8125H17.9697C18.4666 2.8125 18.7103 2.83125 18.7478 2.86875ZM9.77595 9.25781C9.9072 9.29531 10.1884 9.32813 10.4228 9.32813H10.8353V10.1813V11.0391L10.5681 11.25C10.1228 11.6016 9.77595 12.2016 9.65876 12.8156C9.59782 13.1391 9.60251 17.4891 9.66813 17.8406C9.69626 17.9906 9.80407 18.2953 9.9072 18.5156C10.4228 19.5891 11.6181 20.1656 12.8134 19.9172C13.6619 19.7438 14.44 19.0453 14.7353 18.2016L14.8431 17.8828V15.3047C14.8431 12.9094 14.8384 12.7078 14.7541 12.4688C14.5759 11.9438 14.1681 11.3766 13.8119 11.1563L13.6478 11.0531V10.1953V9.34219L14.1775 9.31875C14.4634 9.30938 14.7447 9.27656 14.8009 9.24375C14.8759 9.20625 14.9791 9.21563 15.2697 9.28594C16.3197 9.55313 17.6369 10.0453 18.0775 10.3359C18.5838 10.6734 19.0103 11.2688 19.1838 11.8828C19.2213 12.0188 19.2494 12.3094 19.2447 12.5625L19.24 13.0078L17.8994 17.2922C16.9431 20.3391 16.5259 21.6094 16.4509 21.6891C16.3947 21.75 16.2728 21.8156 16.1838 21.8438C15.9259 21.9141 8.46813 21.9 8.26188 21.8297C8.17282 21.7969 8.06032 21.7219 8.01345 21.6563C7.90095 21.5016 5.31814 13.2469 5.24782 12.8063C5.08376 11.7797 5.68845 10.6406 6.66345 10.1484C7.13688 9.90938 7.96657 9.6 8.65095 9.40313C9.50407 9.15938 9.46188 9.16406 9.77595 9.25781ZM12.8978 11.9156C12.8978 14.2922 12.8931 14.5219 12.8134 14.6672C12.5791 15.1359 11.965 15.1594 11.7025 14.7141C11.6134 14.5594 11.6088 14.4563 11.5947 11.9391L11.5806 9.32813H12.2416H12.8978V11.9156ZM13.9478 12.5156L14.0931 12.8203L14.1072 15.2109C14.1213 17.5359 14.1166 17.6109 14.0228 17.9109C13.6759 18.9797 12.4806 19.5141 11.4728 19.0406C10.9244 18.7828 10.5353 18.2906 10.4134 17.6906C10.3806 17.5313 10.3666 16.6547 10.3759 15.1594C10.3947 12.6469 10.3853 12.6984 10.6853 12.2578L10.8119 12.0703L10.8353 13.3594C10.8541 14.2594 10.8822 14.7094 10.9244 14.8453C11.0275 15.1641 11.2994 15.4734 11.6088 15.6328C11.8478 15.7547 11.9322 15.7734 12.2603 15.7688C12.5556 15.7688 12.6822 15.7453 12.8369 15.6656C13.1463 15.5063 13.3525 15.3 13.4931 15.0094L13.6244 14.7422L13.6384 13.3828C13.6572 11.8641 13.6478 11.8922 13.9478 12.5156Z" fill="white"/>
<path id="Vector_2" d="M15.85 11.4844C15.7188 11.6156 15.7235 11.9062 15.8547 12.0281C15.9344 12.0984 16.0282 12.1172 16.3469 12.1172C16.8157 12.1172 16.9375 12.0375 16.9375 11.7375C16.9375 11.4609 16.8157 11.3906 16.3375 11.3906C16.0047 11.3906 15.9297 11.4047 15.85 11.4844Z" fill="white"/>
<path id="Vector_3" d="M15.8608 14.4984C15.7108 14.6578 15.7202 14.9156 15.8795 15.0422C15.978 15.1219 16.0717 15.1406 16.3248 15.1406C16.4983 15.1406 16.6952 15.1172 16.7608 15.0891C16.9108 15.0187 16.9905 14.8078 16.9248 14.6391C16.8498 14.4375 16.7514 14.3953 16.3389 14.3906C16.0061 14.3906 15.9498 14.4047 15.8608 14.4984Z" fill="white"/>
<path id="Vector_4" d="M15.8797 17.4891C15.7859 17.5641 15.7578 17.625 15.7578 17.7703C15.7578 18.0656 15.8703 18.1406 16.325 18.1406C16.7609 18.1406 16.8547 18.1031 16.925 17.9063C16.9813 17.7328 16.9297 17.5688 16.7797 17.4656C16.6156 17.3484 16.0391 17.3625 15.8797 17.4891Z" fill="white"/>
<path id="Vector_5" d="M3.82246 9.91484C3.64902 10.0883 3.34433 10.7633 3.2084 11.2883C3.10527 11.6727 3.08652 11.8461 3.08652 12.4461C3.08183 12.9617 3.10527 13.2336 3.16152 13.4773C3.29277 13.9977 5.86621 22.2148 5.9834 22.4773C6.29277 23.1711 6.96777 23.7336 7.72715 23.9305C8.12558 24.0336 16.399 24.0336 16.7881 23.9305C17.4678 23.7477 18.1193 23.232 18.4334 22.618C18.6068 22.2805 18.9443 21.2773 18.9443 21.0945C18.9443 20.8461 18.6912 20.682 18.4334 20.7711C18.274 20.8273 18.2459 20.8789 18.0209 21.582C17.749 22.4492 17.4678 22.8148 16.8584 23.0914C16.7131 23.157 16.4553 23.232 16.2818 23.2555C15.8365 23.3117 8.59433 23.307 8.18652 23.2508C7.57246 23.1617 6.96777 22.7445 6.70996 22.2336C6.64902 22.1117 5.99277 20.0633 5.24746 17.6773C3.75683 12.9008 3.74746 12.8539 3.84121 12.057C3.90215 11.518 4.02402 11.1289 4.27715 10.6227C4.48808 10.1961 4.50215 10.0695 4.34277 9.91484C4.19277 9.76016 3.97715 9.76016 3.82246 9.91484Z" fill="white"/>
</g>
</g>
<defs>
<clipPath id="clip0_678_56">
<rect width="24" height="24" fill="white" transform="translate(0.242188)"/>
</clipPath>
</defs>
</svg>
