<svg width="24" height="24" viewBox="0 0 24 24" fill="none" xmlns="http://www.w3.org/2000/svg">
<g id="image 99 (traced)" clip-path="url(#clip0_678_39)">
<g id="Black">
<path id="Vector" d="M4.96875 0.0843773C4.2 0.375002 3.71719 0.946877 3.60938 1.71094C3.58125 1.91719 3.5625 5.475 3.5625 11.4V20.7656H2.98125C2.66719 20.7656 2.33906 20.7891 2.25469 20.8172C1.98281 20.9109 1.96875 21 1.96875 22.3781C1.96875 23.6344 1.9875 23.8172 2.14688 23.9344C2.2125 23.9859 3.69844 23.9953 10.0125 24H17.7984L17.8969 23.8922C18 23.7844 18 23.7563 18 22.4016C17.9953 21.3469 17.9813 21.0047 17.9344 20.9438C17.8313 20.8031 17.6344 20.7656 17.0109 20.7656H16.4063V14.6953C16.4063 11.3578 16.4109 8.625 16.4203 8.625C16.4297 8.625 16.6219 8.7 16.8469 8.78906C17.2641 8.94844 17.4 9.0375 17.4984 9.21094C17.5406 9.28125 17.5594 10.575 17.5781 14.0391C17.6016 18.7594 17.6016 18.7734 17.7 18.9891C17.8313 19.2703 18.1078 19.5469 18.4031 19.6922C18.7172 19.8422 19.2328 19.8469 19.575 19.6922C19.8703 19.5609 20.1656 19.2703 20.3063 18.9609L20.4141 18.7266L20.4281 12.75L20.4375 6.76875L20.6391 6.71719C21.1406 6.58125 21.6656 6.07031 21.9 5.48906C22.0031 5.23594 22.0078 5.175 22.0078 3.71719C22.0078 2.22188 22.0078 2.20313 21.9047 2.1C21.825 2.025 21.7313 1.99219 21.5156 1.97813L21.2344 1.95938V1.16719C21.2344 0.15469 21.1781 0.00468826 20.7984 1.90735e-06C20.6719 1.90735e-06 20.5875 0.032814 20.5078 0.117189C20.3906 0.229689 20.3906 0.239063 20.3906 1.10156V1.96875H20.0203H19.65L19.6313 1.10625C19.6172 0.267189 19.6125 0.239063 19.5047 0.121876C19.35 -0.0421867 19.0453 -0.0468731 18.9 0.107815C18.8016 0.210939 18.7969 0.257814 18.7969 1.09219V1.96875H18.5906C18.3422 1.96875 18.15 2.03438 18.0656 2.14688C18.0188 2.20781 18.0047 2.56406 18 3.69375C18 5.05313 18.0047 5.17969 18.0984 5.44688C18.3 6.04219 18.7641 6.52031 19.3266 6.70313L19.5703 6.78281L19.5844 12.6141C19.5938 18.0891 19.5891 18.4547 19.5141 18.6094C19.4203 18.7875 19.1625 18.9844 19.0219 18.9844C18.8719 18.9844 18.6234 18.8438 18.5297 18.7125C18.45 18.5906 18.4453 18.3188 18.4219 13.8281L18.3984 9.07031L18.2719 8.83594C18.0516 8.41875 17.8453 8.26406 17.1 7.96875L16.4297 7.70156L16.4063 4.6125C16.3875 2.54063 16.3641 1.47656 16.3313 1.38281C16.1344 0.843752 15.7453 0.407814 15.2484 0.173439L14.9297 0.0234394L10.0547 0.0140648C5.5875 0.00937653 5.16094 0.0140648 4.96875 0.0843773ZM14.9766 0.989063C15.2297 1.15781 15.3516 1.29375 15.4641 1.54688C15.5578 1.75781 15.5625 1.79531 15.5625 11.2594V20.7656H9.98438H4.40625L4.41563 11.2594L4.42969 1.75781L4.52813 1.54688C4.65 1.28438 4.88438 1.04531 5.13281 0.932814C5.31094 0.848438 5.54531 0.843752 10.0547 0.857815L14.7891 0.867189L14.9766 0.989063ZM21.1875 3.80625C21.1875 4.98281 21.1734 5.08125 20.9813 5.4C20.7797 5.7375 20.4797 5.92031 20.0859 5.94375C19.7063 5.96719 19.4906 5.89688 19.2281 5.65313C18.8625 5.31563 18.8438 5.25 18.8438 3.94688V2.8125H20.0156H21.1875V3.80625ZM17.1563 22.3828V23.1563H9.98438H2.8125V22.3828V21.6094H9.98438H17.1563V22.3828Z" fill="white"/>
<path id="Vector_2" d="M5.76094 2.45156C5.58281 2.5875 5.57812 2.64844 5.57812 5.20312C5.57812 7.75781 5.58281 7.81875 5.76094 7.95469C5.81719 8.00156 6.79688 8.01094 9.99375 8.01562H14.1516L14.2828 7.90312L14.4141 7.79062V5.2125V2.63437L14.3016 2.5125L14.1891 2.39062H10.0125C6.80156 2.39531 5.81719 2.40469 5.76094 2.45156ZM13.5938 5.20312V7.17187H10.0078H6.42188V5.20312V3.23438H10.0078H13.5938V5.20312Z" fill="white"/>
<path id="Vector_3" d="M8.76562 6V6.42188H9.1875H9.60938V6V5.57812H9.1875H8.76562V6Z" fill="white"/>
<path id="Vector_4" d="M10.3594 6V6.42188H10.7813H11.2031V6V5.57812H10.7813H10.3594V6Z" fill="white"/>
<path id="Vector_5" d="M12 6V6.42188H12.4219H12.8438V6V5.57812H12.4219H12V6Z" fill="white"/>
<path id="Vector_6" d="M12.6555 9.59543C12.4961 9.66105 6.88987 13.697 6.84299 13.7814C6.75393 13.9454 6.78674 14.1798 6.91799 14.3017C7.03049 14.4095 7.07268 14.4142 7.82737 14.4376L8.61955 14.4611L7.70549 16.1486C6.71643 17.9907 6.68362 18.0798 6.9133 18.3048C7.16174 18.5579 7.09612 18.6001 10.1758 16.4017C11.7321 15.2954 13.0586 14.3298 13.1196 14.2642C13.2086 14.1611 13.2227 14.1048 13.2039 13.9501C13.1571 13.622 13.0821 13.5939 12.1539 13.5939H11.3524L12.2664 11.8923C12.7914 10.9267 13.1946 10.1251 13.2039 10.0267C13.2227 9.90012 13.2039 9.83449 13.1196 9.73605C13.0071 9.60949 12.7867 9.54387 12.6555 9.59543ZM11.268 11.9392C11.118 12.2204 10.8321 12.7501 10.6258 13.1251C10.1992 13.9079 10.1571 14.0673 10.3258 14.2736C10.4383 14.4095 10.4571 14.4142 10.9305 14.4376L11.418 14.4611L9.93205 15.5251C8.76955 16.3548 8.46487 16.5517 8.53049 16.4392C8.57268 16.3548 8.87268 15.8064 9.18674 15.2157C9.81018 14.0579 9.85237 13.922 9.6508 13.7064C9.55705 13.6079 9.5008 13.5939 9.04612 13.5845L8.53987 13.5704L10.0211 12.5064C10.8414 11.9204 11.5117 11.4423 11.5211 11.4423C11.5305 11.4376 11.418 11.6626 11.268 11.9392Z" fill="white"/>
</g>
</g>
<defs>
<clipPath id="clip0_678_39">
<rect width="24" height="24" fill="white"/>
</clipPath>
</defs>
</svg>
