<svg width="25" height="24" viewBox="0 0 25 24" fill="none" xmlns="http://www.w3.org/2000/svg">
<g id="image 98 (traced)" clip-path="url(#clip0_678_49)">
<g id="Black">
<path id="Vector" d="M10.7617 1.59844C10.1523 1.66875 9.17734 1.875 8.61016 2.04375C6.75859 2.60625 5.16016 3.55781 3.73516 4.94531C1.86484 6.76875 0.730469 8.93437 0.257031 11.6016C0.158594 12.1453 0.144531 12.3562 0.144531 13.5703C0.144531 15.0187 0.182031 15.3797 0.425781 16.4344C0.913281 18.5016 2.01953 20.6109 3.40234 22.0922L3.73984 22.4531H12.1211H20.5023L20.807 22.1297C22.293 20.55 23.4414 18.3 23.8867 16.0781C24.093 15.0609 24.1352 14.4891 24.107 13.2516C24.0789 11.8687 23.943 11.0203 23.5586 9.82969C22.743 7.275 20.9898 4.9875 18.707 3.4875C17.2727 2.55 15.8477 1.99219 14.0664 1.68281C13.6164 1.60312 13.2648 1.57969 12.3086 1.57031C11.6523 1.56094 10.9539 1.575 10.7617 1.59844ZM11.6523 3.08437C11.6523 3.70781 11.6898 3.80156 11.957 3.89062C12.0789 3.93281 12.1633 3.93281 12.2852 3.89062C12.5523 3.80156 12.5898 3.70781 12.5898 3.08437V2.53125H12.7211C12.9602 2.53125 13.6914 2.625 14.193 2.71875C16.068 3.075 17.9195 3.975 19.382 5.25L19.5461 5.39062L19.2086 5.73281C19.0258 5.925 18.8523 6.14062 18.8242 6.21562C18.6789 6.59062 19.0258 6.97031 19.4195 6.86719C19.4898 6.85312 19.7102 6.675 19.9117 6.47812L20.282 6.12187L20.3992 6.25781C21.6414 7.74375 22.4195 9.22969 22.832 10.8937C22.9727 11.475 23.1367 12.5203 23.1367 12.8531V13.0781H22.5789C22.0492 13.0781 22.0211 13.0828 21.9086 13.1953C21.7445 13.3594 21.7117 13.5703 21.8102 13.7766C21.9227 13.9969 22.1008 14.0578 22.6867 14.0578L23.1508 14.0625L23.118 14.5078C22.9539 16.8516 21.9039 19.3406 20.282 21.2203L20.0711 21.4687H12.1211H4.17109L3.96016 21.2203C2.33828 19.3406 1.28828 16.8469 1.12422 14.5078L1.09141 14.0625L1.55547 14.0578C2.14141 14.0578 2.31953 13.9969 2.43203 13.7766C2.53047 13.5703 2.49766 13.3594 2.33359 13.1953C2.22109 13.0828 2.19297 13.0781 1.66328 13.0781H1.10547V12.8766C1.10547 12.2578 1.35859 10.9594 1.65391 10.0781C2.10391 8.71875 2.79766 7.50937 3.84297 6.25781L3.96016 6.12187L4.33047 6.47812C4.53203 6.675 4.75234 6.85312 4.82266 6.86719C5.21641 6.97031 5.56328 6.59062 5.41797 6.21562C5.38984 6.14062 5.21641 5.925 5.03359 5.73281L4.69609 5.39062L4.86016 5.25C5.57266 4.62656 6.50547 4.01719 7.37734 3.59531C8.57734 3.02344 10.307 2.57344 11.4555 2.53594L11.6523 2.53125V3.08437Z" fill="white"/>
<path id="Vector_2" d="M15.3212 9.15044L13.4321 11.0348L13.2118 10.927C12.8649 10.7583 12.5556 10.6879 12.1196 10.6879C11.6462 10.6926 11.3977 10.7395 11.0509 10.9129C9.87899 11.4848 9.41024 13.0364 10.0477 14.2176C10.2071 14.5129 10.7274 15.0004 11.0509 15.1598C11.7681 15.5114 12.6727 15.4786 13.3618 15.0754C13.6431 14.9067 14.1024 14.3958 14.2524 14.0864C14.3227 13.9364 14.4118 13.6551 14.4493 13.4583C14.5477 12.9989 14.4821 12.4973 14.2759 12.052L14.1306 11.7473L16.0102 9.86763L17.8852 7.98794V7.76294C17.8852 7.58013 17.8618 7.5145 17.7493 7.402C17.6415 7.29419 17.5712 7.26607 17.4118 7.26607H17.2102L15.3212 9.15044ZM12.7149 11.7942C13.3618 12.1036 13.6759 12.9286 13.3899 13.5708C12.9915 14.4754 11.829 14.7004 11.1446 14.002C10.8915 13.7442 10.7462 13.4067 10.7415 13.0786C10.7368 12.0286 11.7774 11.3536 12.7149 11.7942Z" fill="white"/>
<path id="Vector_3" d="M7.32877 16.9172L7.17409 17.0531L7.16002 18.5953C7.15065 19.4391 7.16002 20.1844 7.17409 20.2406C7.18815 20.3016 7.25846 20.4047 7.32409 20.4656L7.44596 20.5781H12.1194H16.7928L16.9147 20.4656C16.9803 20.4047 17.0506 20.3016 17.0647 20.2406C17.0788 20.1844 17.0882 19.4391 17.0788 18.5953L17.0647 17.0531L16.91 16.9172L16.76 16.7812H12.1194H7.47877L7.32877 16.9172ZM16.1038 18.6797V19.5937H12.1194H8.13502V18.6797V17.7656H12.1194H16.1038V18.6797Z" fill="white"/>
</g>
</g>
<defs>
<clipPath id="clip0_678_49">
<rect width="24" height="24" fill="white" transform="translate(0.121094)"/>
</clipPath>
</defs>
</svg>
